<mxfile host="app.diagrams.net" modified="2024-04-09T14:52:59.457Z" agent="Mozilla/5.0 (Windows NT 10.0; Win64; x64) AppleWebKit/537.36 (KHTML, like Gecko) Chrome/123.0.0.0 Safari/537.36" version="24.2.3" etag="l3CsnogHaSxB1_qwRm4p" type="github">
  <diagram name="Page-1" id="TnNp2Z9jjTsV1irYwasX">
    <mxGraphModel>
      <root>
        <mxCell id="0" />
        <mxCell id="1" parent="0" />
      </root>
    </mxGraphModel>
  </diagram>
</mxfile>
